<?xml version="1.0" encoding="UTF-8"?>
<!DOCTYPE svg PUBLIC "-//W3C//DTD SVG 1.1//EN" "http://www.w3.org/Graphics/SVG/1.1/DTD/svg11.dtd">
<svg xmlns="http://www.w3.org/2000/svg" version="1.1" width="800px" height="800px" style="shape-rendering:geometricPrecision; text-rendering:geometricPrecision; image-rendering:optimizeQuality; fill-rule:evenodd; clip-rule:evenodd" xmlns:xlink="http://www.w3.org/1999/xlink">
<g><path style="opacity:0.989" fill="#000000" d="M 540.5,6.5 C 553.44,4.64148 565.44,7.14148 576.5,14C 622.5,40.6667 668.5,67.3333 714.5,94C 721.236,98.7292 727.403,104.229 733,110.5C 738.392,118.677 741.392,127.677 742,137.5C 742.667,312.833 742.667,488.167 742,663.5C 740.607,682.125 731.774,695.959 715.5,705C 666.833,733 618.167,761 569.5,789C 548.239,797.353 530.739,792.519 517,774.5C 514.163,769.828 512.163,764.828 511,759.5C 510.667,603.833 510.333,448.167 510,292.5C 435.582,335.96 361.082,379.293 286.5,422.5C 285.333,509.165 285.167,595.831 286,682.5C 309.667,668.5 333.333,654.5 357,640.5C 357.333,586.5 357.667,532.5 358,478.5C 363.436,458.74 376.436,448.073 397,446.5C 417.31,447.802 430.31,458.136 436,477.5C 436.667,540.833 436.667,604.167 436,667.5C 432.757,684.161 423.591,696.328 408.5,704C 359.663,732.253 310.663,760.253 261.5,788C 237.305,795.276 219.471,787.776 208,765.5C 206.384,761.653 205.384,757.653 205,753.5C 204.333,635.167 204.333,516.833 205,398.5C 205.806,382.05 212.972,369.217 226.5,360C 328.872,300.481 431.539,241.481 534.5,183C 556.813,177.249 573.98,184.083 586,203.5C 587.286,206.405 588.286,209.405 589,212.5C 589.167,368.501 589.667,524.501 590.5,680.5C 614.131,666.699 637.631,652.699 661,638.5C 661.833,477.832 661.667,317.166 660.5,156.5C 623.167,135.167 585.833,113.833 548.5,92.5C 452.629,148.2 356.629,203.7 260.5,259C 240.448,265.948 223.615,261.448 210,245.5C 201.333,229.833 201.333,214.167 210,198.5C 213.534,194.631 217.367,191.131 221.5,188C 323.33,129.586 424.997,70.9193 526.5,12C 531.159,9.84209 535.825,8.00876 540.5,6.5 Z"/></g>
<g><path style="opacity:0.992" fill="#000000" d="M 236.5,9.5 C 260.927,6.45127 277.094,16.4513 285,39.5C 288.107,56.8617 282.607,70.6951 268.5,81C 223.5,107.167 178.5,133.333 133.5,159.5C 132.667,331.499 132.167,503.499 132,675.5C 124.284,698.832 108.118,708.665 83.5,705C 67.8918,700.392 58.0585,690.226 54,674.5C 53.0062,492.466 53.3396,310.466 55,128.5C 58.6614,115.166 66.4947,104.999 78.5,98C 125.663,71.2528 172.663,44.2528 219.5,17C 225.032,13.8942 230.699,11.3942 236.5,9.5 Z"/></g>
</svg>
